<svg xmlns="http://www.w3.org/2000/svg" width="50" height="50" viewBox="0 0 50 50">
  <g id="Group_2437" data-name="Group 2437" transform="translate(-698 -708)">
    <circle id="Ellipse_532" data-name="Ellipse 532" cx="25" cy="25" r="25" transform="translate(698 708)"/>
    <g id="outline-shopping_cart-24px" transform="translate(708 718)">
      <path id="Path_4402" data-name="Path 4402" d="M0,0H30V30H0Z" fill="none"/>
      <path id="Path_4403" data-name="Path 4403" d="M19.913,16.3a2.587,2.587,0,0,0,2.275-1.339l4.654-8.437A1.3,1.3,0,0,0,25.711,4.6H6.473L5.251,2H1V4.6H3.6l4.68,9.867L6.525,17.639A2.6,2.6,0,0,0,8.8,21.5H24.4V18.9H8.8l1.43-2.6ZM7.707,7.2H23.5l-3.588,6.5H10.788ZM8.8,22.8a2.6,2.6,0,1,0,2.6,2.6A2.6,2.6,0,0,0,8.8,22.8Zm13,0a2.6,2.6,0,1,0,2.6,2.6A2.6,2.6,0,0,0,21.8,22.8Z" fill="#fff"/>
    </g>
  </g>
</svg>
